<svg width="54" height="54" viewBox="0 0 54 54" fill="none" xmlns="http://www.w3.org/2000/svg">
<rect x="0.5" y="0.5" width="53" height="53" rx="26.5" stroke="black"/>
<path d="M27 21.3333C27.8426 21.3333 28.677 21.1674 29.4556 20.8449C30.2341 20.5224 30.9414 20.0498 31.5373 19.4539C32.1331 18.8581 32.6058 18.1507 32.9282 17.3722C33.2507 16.5937 33.4167 15.7593 33.4167 14.9167C33.4167 14.074 33.2507 13.2396 32.9282 12.4611C32.6058 11.6826 32.1331 10.9752 31.5373 10.3794C30.9414 9.78356 30.2341 9.31091 29.4556 8.98844C28.677 8.66597 27.8426 8.5 27 8.5C25.2982 8.5 23.6661 9.17604 22.4627 10.3794C21.2594 11.5828 20.5833 13.2149 20.5833 14.9167C20.5833 16.6185 21.2594 18.2506 22.4627 19.4539C23.6661 20.6573 25.2982 21.3333 27 21.3333ZM10.5 40.4V41.5H43.5V40.4C43.5 36.2933 43.5 34.24 42.7007 32.6707C41.9976 31.2909 40.8758 30.1691 39.496 29.466C37.9267 28.6667 35.8733 28.6667 31.7667 28.6667H22.2333C18.1267 28.6667 16.0733 28.6667 14.504 29.466C13.1242 30.1691 12.0024 31.2909 11.2993 32.6707C10.5 34.24 10.5 36.2933 10.5 40.4Z" fill="black" stroke="black" stroke-width="2" stroke-linecap="round" stroke-linejoin="round"/>
</svg>
